<?xml version="1.0" standalone="no"?>
<!DOCTYPE svg PUBLIC "-//W3C//DTD SVG 20010904//EN"
 "http://www.w3.org/TR/2001/REC-SVG-20010904/DTD/svg10.dtd">
<svg version="1.0" xmlns="http://www.w3.org/2000/svg"
 width="182.000000pt" height="200.000000pt" viewBox="0 0 182.000000 200.000000"
 preserveAspectRatio="xMidYMid meet">

<g transform="translate(0.000000,200.000000) scale(0.100000,-0.100000)"
fill="#93264d" stroke="#fff">
<path d="M405 1898 c-36 -20 -303 -248 -309 -264 -11 -28 -7 -737 5 -779 6
-22 69 -188 141 -370 103 -259 138 -337 164 -362 l32 -33 327 0 c273 0 332 3
358 15 18 9 97 71 177 138 l145 122 145 360 145 360 3 390 c3 387 3 390 -18
413 -22 23 -23 23 -244 20 l-223 -3 -149 -126 c-110 -93 -152 -135 -161 -160
-8 -22 -12 -112 -12 -258 -1 -123 -4 -221 -8 -217 -5 4 -10 167 -13 363 l-5
355 -28 24 c-28 24 -30 24 -240 24 -138 -1 -219 -5 -232 -12z m466 -27 c18
-22 19 -43 19 -348 l0 -325 66 -199 65 -199 39 0 39 0 65 199 66 199 0 329 c0
323 0 330 21 349 19 17 41 19 225 22 l204 3 25 -25 25 -25 0 -338 c0 -249 -4
-355 -14 -403 -13 -59 -232 -624 -276 -709 -31 -62 -31 -62 -397 -59 -317 3
-333 4 -352 23 -24 25 -276 653 -296 738 -18 77 -22 726 -4 758 6 11 20 24 32
29 12 5 114 8 225 7 201 -2 204 -2 223 -26z"/>
<path d="M632 1404 c5 -341 -7 -281 123 -596 49 -119 89 -201 110 -225 l33
-38 145 -3 c176 -4 190 1 234 85 45 83 169 389 188 458 12 47 15 115 13 340
l-2 280 -6 -290 c-6 -224 -11 -301 -23 -340 -40 -122 -184 -450 -213 -484
l-32 -36 -124 -3 c-138 -4 -184 7 -213 52 -22 33 -181 415 -200 480 -12 38
-15 113 -15 327 0 188 -3 280 -11 284 -7 5 -9 -79 -7 -291z"/>
</g>
</svg>
